<svg xmlns="http://www.w3.org/2000/svg" width="66.788" height="67.201" viewBox="0 0 66.788 67.201">
    <g id="_19597499381553169567" data-name="19597499381553170000" transform="translate(-5.115 -14.718)">
        <path id="Path_822" d="M72.332 47.809a4.587 4.587 0 0 0-4.4-2.831 4.835 4.835 0 0 0-1.657.286 6.388 6.388 0 0 0-1.631.963 5.2 5.2 0 0 0-9.215-.505 5.2 5.2 0 0 0-5.763-1.54 6.465 6.465 0 0 0-3.094 2.371l-4.6-12.631c-.887-2.438-2.672-3.893-4.775-3.893a4.927 4.927 0 0 0-1.69.31c-2.74 1-3.924 3.924-2.818 6.965L43.5 66.805l-5.563-2.76a6.092 6.092 0 0 0-5.183 11.026c.051.027 5.177 2.766 12.273 6.074l1.153.54c4.549 2.137 8.846 4.155 13.827 4.155a20.976 20.976 0 0 0 7.258-1.359c8.835-3.212 10.173-8.718 10.79-14.081.594-5.159-5.465-21.882-5.723-22.591zm3.506 22.336c-.581 5.049-1.685 9.456-9.331 12.239a18.794 18.794 0 0 1-6.5 1.224c-4.482 0-8.373-1.828-12.878-3.943l-1.159-.543c-7.036-3.28-12.113-5.993-12.218-6.047a3.873 3.873 0 0 1-1.863-5.151 3.817 3.817 0 0 1 5.079-1.869l8.046 3.991a1.116 1.116 0 0 0 1.543-1.384L34.786 36.539c-.527-1.451-.455-3.4 1.485-4.1a2.72 2.72 0 0 1 .928-.176c1.125 0 2.126.907 2.679 2.425L47 54.257a1.116 1.116 0 1 0 2.1-.764l-1.018-2.8a3.47 3.47 0 0 1 2.35-4.417 2.972 2.972 0 0 1 3.814 1.778l1.387 3.812.013.033a1.115 1.115 0 0 0 2.1-.763l-.652-1.792a2.975 2.975 0 0 1 5.606-1.987l1.631 4.481.022.062a1.116 1.116 0 0 0 2.1-.764l-.971-2.668a5.332 5.332 0 0 1 1.562-1.108 2.6 2.6 0 0 1 .893-.152 2.4 2.4 0 0 1 2.3 1.363c1.707 4.696 6.044 17.722 5.601 21.574z" data-name="Path 822" transform="translate(-6.193 -3.922)"/>
        <path id="Path_823" d="M12.279 21.76a77.13 77.13 0 0 1 39.606 1.332 1.7 1.7 0 0 0 1.988-.936 1.668 1.668 0 0 0-1.127-1.912 80.112 80.112 0 0 0-41.134-1.384l-.751-3.262c-.1-.439-.289-.815-.806-.87a1.085 1.085 0 0 0-1.115.522q-1.986 2.8-3.673 5.69a1.045 1.045 0 0 0 .481 1.5q3 1.384 5.765 2.991a.879.879 0 0 0 1.081-.016.975.975 0 0 0 .268-1.121q-.29-1.267-.583-2.534z" data-name="Path 823"/>
    </g>
</svg>
