<svg xmlns="http://www.w3.org/2000/svg" width="32.181" height="46.031"><g data-name="Group 1973"><g data-name="Group 1967" transform="translate(-30 -71)"><path d="M42.921 99.038a23.8 23.8 0 00-7.995-6.862 3.265 3.265 0 00-1.579-.4 3.314 3.314 0 00-1.58 6.24 16.1 16.1 0 018.433 13.313v-.019a3.475 3.475 0 01.343-1.853c.038-.076.1-.17.152-.265a15.972 15.972 0 002.34-8.316c0-.624-.057-1.229-.114-1.834" fill="rgba(255,255,255,0.8)"/><path data-name="Path" d="M61.282 91.511a36.354 36.354 0 00-2.515-7.421 3.589 3.589 0 00-3.212-2.091 3.3 3.3 0 00-1.523.358 3.687 3.687 0 00-1.689 4.859 29.272 29.272 0 012.7 12.337 29.208 29.208 0 01-2.663 12.261 4.174 4.174 0 00-.33 1.526 3.727 3.727 0 00.092.848 3.584 3.584 0 003.469 2.844 3.549 3.549 0 003.12-1.9 27.17 27.17 0 002.056-5.481c.2-.7.367-1.356.514-2.053a37.729 37.729 0 00.881-8.042 39.1 39.1 0 00-.9-8.042M46.256 88.937a1.69 1.69 0 00-.207-.3 3.14 3.14 0 00-.872-.782 3.483 3.483 0 00-1.88-.56 3.021 3.021 0 00-1.243.224 3.44 3.44 0 00-1.244.8 3.555 3.555 0 00-.791 1.271 3.43 3.43 0 00.282 2.948 15.35 15.35 0 012.186 6.381 14.584 14.584 0 01.113 1.81 15.548 15.548 0 01-2.318 8.209c-.057.093-.094.168-.151.261a3.343 3.343 0 00-.339 1.847 3.446 3.446 0 001.658 2.631 4.275 4.275 0 00.791.354 3.594 3.594 0 001 .149 3.461 3.461 0 002.977-1.661 22.5 22.5 0 003.279-10.3c.038-.485.057-.989.057-1.474a22.306 22.306 0 00-3.3-11.81" fill="#fff"/><path data-name="Path" d="M52.482 112.794a27.824 27.824 0 002.774-12.192 28.828 28.828 0 00-.171-3.221 30.732 30.732 0 00-10.013-9.679s.095.056.095.075a4.012 4.012 0 01.779.73 2.072 2.072 0 01.209.3 22.479 22.479 0 013.325 11.795c0 .506-.019.992-.057 1.479a23.133 23.133 0 012.698 10.921v1.18a3.777 3.777 0 01.266-1.217.381.381 0 00.095-.169" fill="rgba(255,255,255,0.8)"/><circle data-name="Ellipse 1" cx="4.074" cy="4.074" r="4.074" transform="translate(46.091 71)" fill="#fff"/></g></g></svg>