<svg fill="#000000" xmlns="http://www.w3.org/2000/svg" viewBox="0 0 48 48" width="24px" height="24px"><path d="M 27.478516 7 A 1.50015 1.50015 0 0 0 26 8.5 L 26 16.285156 C 23.342281 16.581601 18.972916 17.343283 14.574219 20.191406 C 9.5799927 23.42513 5.1401785 29.370264 5.0371094 39.185547 C 5.0356094 39.193047 5.0307869 39.197598 5.0292969 39.205078 L 5.0332031 39.205078 C 5.0321348 39.313011 5 39.391123 5 39.5 A 1.50015 1.50015 0 0 0 7.9707031 39.794922 C 9.1580428 33.858682 12.859175 31.228006 16.960938 29.878906 C 20.422894 28.740243 23.812407 28.73987 26 28.855469 L 26 36.5 A 1.50015 1.50015 0 0 0 28.560547 37.560547 L 42.560547 23.560547 A 1.50015 1.50015 0 0 0 42.560547 21.439453 L 28.560547 7.4394531 A 1.50015 1.50015 0 0 0 27.478516 7 z M 29 12.121094 L 39.378906 22.5 L 29 32.878906 L 29 27.384766 A 1.50015 1.50015 0 0 0 27.640625 25.890625 C 25.556671 25.695502 20.789675 25.461646 16.023438 27.029297 C 13.79672 27.761681 11.585426 28.994302 9.6875 30.755859 C 11.206563 27.041671 13.545736 24.432841 16.205078 22.710938 C 20.579045 19.878826 25.605232 19.19049 27.609375 19.042969 A 1.50015 1.50015 0 0 0 29 17.546875 L 29 12.121094 z"/></svg>