<svg xmlns="http://www.w3.org/2000/svg" width="20" height="23.649" viewBox="0 0 20 23.649">
  <g id="Group_2013" data-name="Group 2013" transform="translate(-322 -740.942)">
    <g id="Fill_4815_Fill_4816_Fill_4817" data-name="Fill 4815 + Fill 4816 + Fill 4817" transform="translate(321.89 740.5)">
      <path id="Fill_4815" data-name="Fill 4815" d="M.5,8.25a.5.5,0,0,1-.5-.5A5.384,5.384,0,0,1,5.611,2.5H6.89V.5a.5.5,0,0,1,1,0V3a.5.5,0,0,1-.5.5H5.611A4.4,4.4,0,0,0,1,7.75a.5.5,0,0,1-.5.5" transform="translate(0.11 15.841)" fill="#fff"/>
      <path id="Fill_4816" data-name="Fill 4816" d="M7.61,8.25a.5.5,0,0,1-.5-.5A4.181,4.181,0,0,0,2.721,3.5H.5A.5.5,0,0,1,0,3V.5A.5.5,0,0,1,.5,0,.5.5,0,0,1,1,.5v2H2.721A5.206,5.206,0,0,1,8.11,7.75a.5.5,0,0,1-.5.5" transform="translate(12 15.841)" fill="#fff"/>
      <path id="Fill_4817" data-name="Fill 4817" d="M6.791,17.4a4.866,4.866,0,0,1-3.686-1.931,7.462,7.462,0,0,1-1.692-4.1A1.48,1.48,0,0,1,0,9.9v-2c0-.672.7-1.133,1-1.3V4.9C1,1.647,2.844.928,4.39.9A9.9,9.9,0,0,1,8.338,0,4.93,4.93,0,0,1,12.5,1.808a3.575,3.575,0,0,1,.5,3.17V6.6c.3.167,1,.63,1,1.3v2c0,.751-.652,1.329-1.661,1.471a7.5,7.5,0,0,1-1.769,4.079A5.069,5.069,0,0,1,6.791,17.4ZM8.359.968a8.893,8.893,0,0,0-3.652.889A.466.466,0,0,1,4.5,1.9c-1.706,0-2.5.953-2.5,3v2a.5.5,0,0,1-.3.462A1.515,1.515,0,0,0,1,7.9v2c0,.332.3.5.9.5a.5.5,0,0,1,.5.5c0,2.491,1.961,5.5,4.4,5.5,2.46,0,4.568-3.024,4.568-5.5a.5.5,0,0,1,.5-.5C12.6,10.4,13,10.108,13,9.9v-2c-.021-.123-.383-.4-.7-.54A.5.5,0,0,1,12,6.9v-2a.53.53,0,0,1,.026-.161,2.52,2.52,0,0,0-.338-2.34A3.987,3.987,0,0,0,8.359.968Z" transform="translate(3 0.442)" fill="#fff"/>
    </g>
  </g>
</svg>
