<svg xmlns="http://www.w3.org/2000/svg" width="24" height="18" viewBox="0 0 24 18">
  <g id="Group_2012" data-name="Group 2012" transform="translate(-251 -743.84)">
    <g id="Group" transform="translate(251 743.5)">
      <path id="Fill_8607" data-name="Fill 8607" d="M21.5,18H2.5A2.5,2.5,0,0,1,0,15.5V2.5A2.5,2.5,0,0,1,2.5,0h19A2.5,2.5,0,0,1,24,2.5v13A2.5,2.5,0,0,1,21.5,18ZM2.5,1A1.5,1.5,0,0,0,1,2.5v13A1.5,1.5,0,0,0,2.5,17h19A1.5,1.5,0,0,0,23,15.5V2.5A1.5,1.5,0,0,0,21.5,1Z" transform="translate(0 0.34)" fill="#fff"/>
      <path id="Fill_8608" data-name="Fill 8608" d="M9.008,8.818a3.6,3.6,0,0,1-2.67-1.19L.131.838A.5.5,0,0,1,.163.128.509.509,0,0,1,.869.157l6.207,6.79a2.642,2.642,0,0,0,3.866,0l6.2-6.779a.51.51,0,0,1,.707-.031.505.505,0,0,1,.031.71l-6.2,6.781a3.6,3.6,0,0,1-2.671,1.19" transform="translate(2.713 3.553)" fill="#fff"/>
      <path id="Fill_8609" data-name="Fill 8609" d="M.5,5.989a.5.5,0,0,1-.369-.17.494.494,0,0,1,.032-.7L5.62.128a.51.51,0,0,1,.707.03.505.505,0,0,1-.032.71L.838,5.848A.5.5,0,0,1,.5,5.989" transform="translate(2.713 9.572)" fill="#fff"/>
      <path id="Fill_8610" data-name="Fill 8610" d="M5.961,5.989a.493.493,0,0,1-.337-.141L.163.868A.5.5,0,0,1,.131.158.509.509,0,0,1,.837.128L6.3,5.118a.493.493,0,0,1,.032.7.5.5,0,0,1-.369.17" transform="translate(14.272 9.572)" fill="#fff"/>
    </g>
  </g>
</svg>
