<?xml version="1.0"?><svg fill="#000000" xmlns="http://www.w3.org/2000/svg" viewBox="0 0 128 128" width="64px" height="64px">    <path d="M 64 23.599609 C 60.3 23.599609 57.099219 25.499609 55.199219 28.599609 L 19.099609 88.900391 C 17.199609 92.100391 17.1 95.999219 19 99.199219 C 20.8 102.39922 24.100781 104.40039 27.800781 104.40039 L 100.09961 104.40039 C 103.79961 104.40039 107.2 102.49922 109 99.199219 C 110.8 95.999219 110.80039 92.100391 108.90039 88.900391 L 72.800781 28.599609 C 70.900781 25.499609 67.7 23.599609 64 23.599609 z M 64 29.599609 C 65.5 29.599609 66.799609 30.299219 67.599609 31.699219 L 103.80078 92 C 104.60078 93.3 104.60039 94.900781 103.90039 96.300781 C 103.10039 97.600781 101.79922 98.400391 100.19922 98.400391 L 27.800781 98.400391 C 26.300781 98.400391 24.899609 97.600781 24.099609 96.300781 C 23.299609 95.000781 23.399219 93.3 24.199219 92 L 60.400391 31.699219 C 61.200391 30.399219 62.5 29.599609 64 29.599609 z M 64 49.300781 C 62.3 49.300781 61 50.600781 61 52.300781 L 61 73.300781 C 61 75.000781 62.3 76.300781 64 76.300781 C 65.7 76.300781 67 75.000781 67 73.300781 L 67 52.300781 C 67 50.600781 65.7 49.300781 64 49.300781 z M 64 80.5 A 3 3 0 0 0 61 83.5 A 3 3 0 0 0 64 86.5 A 3 3 0 0 0 67 83.5 A 3 3 0 0 0 64 80.5 z"/></svg>