<svg height="64" viewBox="0 0 128 128" width="64" xmlns="http://www.w3.org/2000/svg"><path d="m64 6c-14.6 0-28.5 5.4-39.3 15.3-10.6 9.8-17.2 23.2-18.5 37.6-.1 1.6 1.1 3.1 2.8 3.2 1.6.2 3.1-1.1 3.3-2.7 1.1-12.9 7-24.8 16.6-33.6 3.7-3.4 7.8-6.2 12.3-8.4.5 15 5.4 29.3 13.9 41.5-9.5 8.1-21.1 13.7-33.7 16-1.6-4-5.6-6.8-10.2-6.8-6.3-.1-11.2 4.8-11.2 10.9s4.9 11 11 11c5.4 0 10-4 10.8-9.2 13.8-2.4 26.4-8.5 36.7-17.2 1 1.2 2 2.4 3.1 3.6.8.8 1.5 1.6 2.3 2.4-.6 1.4-1 2.9-1 4.5 0 6.1 4.9 11 11 11 2.7 0 5.2-1 7.1-2.6 2.3 1.3 4.7 2.5 7.2 3.5-6.2 11.7-14.8 22-25.4 30-16.1-.3-30.8-7.9-40.5-20.9-1-1.3-2.9-1.6-4.2-.6s-1.6 2.9-.6 4.2c11.1 14.8 28 23.3 46.5 23.3 32 0 58-26 58-58s-26-58-58-58zm-53 78c-2.8 0-5-2.2-5-5s2.2-5 5-5 5 2.2 5 5-2.2 5-5 5zm48.4-29.3c-8-11.7-12.3-25.5-12.4-39.8 5.4-1.9 11.1-2.9 17-2.9 5.3 0 10.5.8 15.3 2.3-2.1 15.7-9.4 29.7-19.9 40.4zm14.6 24.3c-2.8 0-5-2.2-5-5s2.2-5 5-5 5 2.2 5 5-2.2 5-5 5zm10.5-1.6c.3-1.1.5-2.2.5-3.4 0-6.1-4.9-11-11-11-2.3 0-4.4.7-6.2 1.9-.6-.6-1.2-1.2-1.8-1.8-1-1.2-2-2.4-3-3.6 11.5-11.4 19.5-26.3 22.1-43 18.2 8.1 30.9 26.3 30.9 47.5 0 7.7-1.7 15-4.7 21.6-5-.5-9.9-1.5-14.7-3 4.4-9.7 7.3-20.3 8.8-31.4.2-1.6-.9-3.1-2.6-3.4-1.6-.2-3.1.9-3.4 2.6-1.4 10.7-4.3 20.9-8.5 30.1-2.2-.9-4.3-2-6.4-3.1zm-11.3 37.8c8.4-7.7 15.4-16.9 20.8-27.2 4.6 1.5 9.4 2.6 14.2 3.3-7.6 12.3-20.2 21.2-35 23.9z"/></svg>