<svg xmlns="http://www.w3.org/2000/svg" width="29.221" height="24.241" viewBox="0 0 29.221 24.241">
  <g id="Group_2010" data-name="Group 2010" transform="translate(-104 -740.1)">
    <g id="Group" transform="translate(104 740.5)">
      <path id="Fill_4839" data-name="Fill 4839" d="M8.5,9A.5.5,0,0,1,8,8.5C8,6.056,4.008,4,1.5,4a.5.5,0,0,1-.474-.341l-1-3A.494.494,0,0,1,.342.027.5.5,0,0,1,.974.336l.89,2.67C4.81,3.187,9,5.487,9,8.5a.5.5,0,0,1-.5.5" transform="translate(20.221 13.844)" fill="#fff"/>
      <path id="Fill_4840" data-name="Fill 4840" d="M.5,15a.5.5,0,0,1,0-1c4.873,0,6.813-2.429,7.426-3.49a21.878,21.878,0,0,1-1.913-3.89C5.615,4.929,4.279,1,.5,1a.5.5,0,1,1,0-1C3.664,0,6.028,2.329,6.987,6.389a23.286,23.286,0,0,0,1.942,3.85.5.5,0,0,1,.018.48C8.446,11.73,6.354,15,.5,15" transform="translate(18.221 -0.159)" fill="#fff"/>
      <path id="Fill_4841" data-name="Fill 4841" d="M6.721,17.24c-2.932,0-5.13-3.117-5.344-6.029A1.456,1.456,0,0,1,0,9.74v-2c0-.673.7-1.133,1-1.3v-1.7c0-1.795.586-3.461,4.835-3.5A6.285,6.285,0,0,1,9.467,0a4.132,4.132,0,0,1,3.691,1.941A2.905,2.905,0,0,1,13,4.89V6.441c.3.166,1,.628,1,1.3v2c0,.763-.636,1.326-1.661,1.471a7.455,7.455,0,0,1-1.791,4.079A5.154,5.154,0,0,1,6.721,17.24ZM9.467,1A5.294,5.294,0,0,0,6.3,2.141a.465.465,0,0,1-.3.1c-4,0-4,1.387-4,2.5v2a.5.5,0,0,1-.3.461,1.526,1.526,0,0,0-.7.54v2c0,.15,0,.5.86.5a.494.494,0,0,1,.5.5c0,2.544,1.905,5.5,4.361,5.5,2.5,0,4.639-3.025,4.639-5.5a.5.5,0,0,1,.5-.5c.743,0,1.139-.291,1.139-.5v-2c-.021-.123-.383-.4-.7-.54A.5.5,0,0,1,12,6.74v-2a.516.516,0,0,1,.085-.28,1.9,1.9,0,0,0,.192-2.05A3.129,3.129,0,0,0,9.467,1Z" transform="translate(4 -0.4)" fill="#fff"/>
      <path id="Fill_4842" data-name="Fill 4842" d="M.5,8.862a.5.5,0,0,1-.5-.5v-1c0-2.991,2.1-5,5.221-5H6.467L8.039.211a.488.488,0,0,1,.7-.11.5.5,0,0,1,.109.7L7.125,3.161a.521.521,0,0,1-.4.2h-1.5C2.657,3.361,1,4.931,1,7.362v1a.5.5,0,0,1-.5.5" transform="translate(0 14.979)" fill="#fff"/>
      <path id="Fill_4843" data-name="Fill 4843" d="M8.681,8.86a.5.5,0,0,1-.5-.5v-1c0-2.631-2.363-4-4.7-4h-1.5a.51.51,0,0,1-.423-.229L.077.769A.5.5,0,0,1,.234.079a.5.5,0,0,1,.69.15L2.261,2.36H3.484c3.248,0,5.7,2.149,5.7,5v1a.5.5,0,0,1-.5.5" transform="translate(12.819 14.981)" fill="#fff"/>
    </g>
  </g>
</svg>
