<svg height="21.93" viewBox="0 0 21.89 21.93" width="21.89" xmlns="http://www.w3.org/2000/svg"><path d="m22 16.92v3a2 2 0 0 1 -2.18 2 19.79 19.79 0 0 1 -8.63-3.07 19.5 19.5 0 0 1 -6-6 19.79 19.79 0 0 1 -3.07-8.67 2 2 0 0 1 1.99-2.18h3a2 2 0 0 1 2 1.72 12.84 12.84 0 0 0 .7 2.81 2 2 0 0 1 -.45 2.11l-1.27 1.27a16 16 0 0 0 6 6l1.27-1.27a2 2 0 0 1 2.11-.45 12.84 12.84 0 0 0 2.81.7 2 2 0 0 1 1.72 2.03z" fill="none" stroke="#262a50" stroke-linecap="round" stroke-linejoin="round" stroke-width="2" transform="translate(-1.111 -1)"/></svg>